HIERARCHY
ROOT hip
{
  OFFSET -103.841 71.2662 -158.348
  CHANNELS 6 Xposition Yposition Zposition Zrotation Xrotation Yrotation
  JOINT abdomen
  {
    OFFSET 0 20.6881 -0.73152
    CHANNELS 3 Zrotation Xrotation Yrotation
    JOINT chest
    {
      OFFSET 0 11.7043 -0.48768
      CHANNELS 3 Zrotation Xrotation Yrotation
      JOINT neck
      {
        OFFSET 0 22.1894 -2.19456
        CHANNELS 3 Zrotation Xrotation Yrotation
        JOINT head
        {
          OFFSET -0.24384 7.07133 1.2192
          CHANNELS 3 Zrotation Xrotation Yrotation
          JOINT leftEye
          {
            OFFSET 4.14528 8.04674 8.04672
            CHANNELS 3 Zrotation Xrotation Yrotation
            End Site
            {
              OFFSET 1 0 0
            }
          }
          JOINT rightEye
          {
            OFFSET -3.6576 8.04674 8.04672
            CHANNELS 3 Zrotation Xrotation Yrotation
            End Site
            {
              OFFSET 1 0 0
            }
          }
        }
      }
      JOINT rCollar
      {
        OFFSET -2.68224 19.2634 -4.8768
        CHANNELS 3 Zrotation Xrotation Yrotation
        JOINT rShldr
        {
          OFFSET -8.77824 -1.95073 1.46304
          CHANNELS 3 Zrotation Xrotation Yrotation
          JOINT rForeArm
          {
            OFFSET -28.1742 -1.7115 0.48768
            CHANNELS 3 Zrotation Xrotation Yrotation
            JOINT rHand
            {
              OFFSET -22.5879 0.773209 7.07136
              CHANNELS 3 Zrotation Xrotation Yrotation
              JOINT rThumb1
              {
                OFFSET -1.2192 -0.487915 3.41376
                CHANNELS 3 Zrotation Xrotation Yrotation
                JOINT rThumb2
                {
                  OFFSET -3.37035 -0.52449 3.41376
                  CHANNELS 3 Zrotation Xrotation Yrotation
                  End Site
                  {
                    OFFSET -1.78271 -1.18214 1.43049
                  }
                }
              }
              JOINT rIndex1
              {
                OFFSET -7.75947 0.938293 5.60832
                CHANNELS 3 Zrotation Xrotation Yrotation
                JOINT rIndex2
                {
                  OFFSET -2.54057 -0.884171 1.56538
                  CHANNELS 3 Zrotation Xrotation Yrotation
                  End Site
                  {
                    OFFSET -1.62519 -0.234802 1.16502
                  }
                }
              }
              JOINT rMid1
              {
                OFFSET -8.24714 1.18213 3.41376
                CHANNELS 3 Zrotation Xrotation Yrotation
                JOINT rMid2
                {
                  OFFSET -3.10165 -0.590103 1.0647
                  CHANNELS 3 Zrotation Xrotation Yrotation
                  End Site
                  {
                    OFFSET -2.48547 -0.328903 0.83742
                  }
                }
              }
              JOINT rRing1
              {
                OFFSET -8.82822 0.546677 1.51678
                CHANNELS 3 Zrotation Xrotation Yrotation
                JOINT rRing2
                {
                  OFFSET -2.60934 -0.819778 -0.0198488
                  CHANNELS 3 Zrotation Xrotation Yrotation
                  End Site
                  {
                    OFFSET -2.33842 -0.294052 0.168128
                  }
                }
              }
              JOINT rPinky1
              {
                OFFSET -8.27202 -0.0477905 -0.4584
                CHANNELS 3 Zrotation Xrotation Yrotation
                JOINT rPinky2
                {
                  OFFSET -1.82734 -0.647385 -0.700984
                  CHANNELS 3 Zrotation Xrotation Yrotation
                  End Site
                  {
                    OFFSET -1.69225 -0.51767 -0.607171
                  }
                }
              }
            }
          }
        }
      }
      JOINT lCollar
      {
        OFFSET 2.68224 19.2634 -4.8768
        CHANNELS 3 Zrotation Xrotation Yrotation
        JOINT lShldr
        {
          OFFSET 8.77824 -1.95073 1.46304
          CHANNELS 3 Zrotation Xrotation Yrotation
          JOINT lForeArm
          {
            OFFSET 28.1742 -1.7115 0.48768
            CHANNELS 3 Zrotation Xrotation Yrotation
            JOINT lHand
            {
              OFFSET 22.5879 0.773209 7.07136
              CHANNELS 3 Zrotation Xrotation Yrotation
              JOINT lThumb1
              {
                OFFSET 1.2192 -0.487915 3.41376
                CHANNELS 3 Zrotation Xrotation Yrotation
                JOINT lThumb2
                {
                  OFFSET 3.37035 -0.52449 3.41376
                  CHANNELS 3 Zrotation Xrotation Yrotation
                  End Site
                  {
                    OFFSET 1.78271 -1.18214 1.43049
                  }
                }
              }
              JOINT lIndex1
              {
                OFFSET 7.75947 0.938293 5.60832
                CHANNELS 3 Zrotation Xrotation Yrotation
                JOINT lIndex2
                {
                  OFFSET 2.54057 -0.884171 1.56538
                  CHANNELS 3 Zrotation Xrotation Yrotation
                  End Site
                  {
                    OFFSET 1.62519 -0.234802 1.16502
                  }
                }
              }
              JOINT lMid1
              {
                OFFSET 8.24714 1.18213 3.41376
                CHANNELS 3 Zrotation Xrotation Yrotation
                JOINT lMid2
                {
                  OFFSET 3.10165 -0.590103 1.0647
                  CHANNELS 3 Zrotation Xrotation Yrotation
                  End Site
                  {
                    OFFSET 2.48547 -0.328903 0.83742
                  }
                }
              }
              JOINT lRing1
              {
                OFFSET 8.82822 0.546677 1.51678
                CHANNELS 3 Zrotation Xrotation Yrotation
                JOINT lRing2
                {
                  OFFSET 2.60934 -0.819778 -0.0198488
                  CHANNELS 3 Zrotation Xrotation Yrotation
                  End Site
                  {
                    OFFSET 2.33842 -0.294052 0.168128
                  }
                }
              }
              JOINT lPinky1
              {
                OFFSET 8.27202 -0.0477905 -0.4584
                CHANNELS 3 Zrotation Xrotation Yrotation
                JOINT lPinky2
                {
                  OFFSET 1.82734 -0.647385 -0.700984
                  CHANNELS 3 Zrotation Xrotation Yrotation
                  End Site
                  {
                    OFFSET 1.69225 -0.51767 -0.607171
                  }
                }
              }
            }
          }
        }
      }
    }
  }
  JOINT rButtock
  {
    OFFSET -8.77824 4.35084 1.2192
    CHANNELS 3 Zrotation Xrotation Yrotation
    JOINT rThigh
    {
      OFFSET 0 -1.70687 -2.19456
      CHANNELS 3 Zrotation Xrotation Yrotation
      JOINT rShin
      {
        OFFSET 0 -36.8199 0.73152
        CHANNELS 3 Zrotation Xrotation Yrotation
        JOINT rFoot
        {
          OFFSET 0.73152 -45.1104 -5.12064
          CHANNELS 3 Zrotation Xrotation Yrotation
          End Site
          {
            OFFSET -1.1221 -3.69964 12.103
          }
        }
      }
    }
  }
  JOINT lButtock
  {
    OFFSET 8.77824 4.35084 1.2192
    CHANNELS 3 Zrotation Xrotation Yrotation
    JOINT lThigh
    {
      OFFSET 0 -1.70687 -2.19456
      CHANNELS 3 Zrotation Xrotation Yrotation
      JOINT lShin
      {
        OFFSET 0 -36.8199 0.73152
        CHANNELS 3 Zrotation Xrotation Yrotation
        JOINT lFoot
        {
          OFFSET -0.73152 -45.1104 -5.12064
          CHANNELS 3 Zrotation Xrotation Yrotation
          End Site
          {
            OFFSET 1.1221 -3.69964 12.103
          }
        }
      }
    }
  }
}
MOTION
Frames:	4
Frame Time:	0.00833333
-133.964 68.1761 31.2372 -3.83545 -24.4913 -154.263 -1.10602 33.8469 -1.16158 -1.23741 0.189281 0.583871 -5.24215 13.5276 -1.82124 51.756 -65.7537 38.2999 -0 0 0 -0 0 0 -1.77965e-013 -1.81292e-013 -4.10142e-013 87.1258 -1.84787 2.29841 -28.3963 -34.2122 74.0475 -3.37742 -45.1307 -8.11634 -1.81687e-009 -4.35424e-010 -3.24563e-009 -3.03033e-009 -7.60464e-010 -5.64151e-009 -1.81686e-009 -4.35424e-010 -3.24563e-009 7.73091 5.47488 0.417314 -1.81686e-009 -4.35424e-010 -3.24563e-009 2.90554 0.965183 0.102902 -1.81686e-009 -4.35424e-010 -3.24562e-009 10.2786 0.731801 0.0259123 -1.81687e-009 -4.35424e-010 -3.24562e-009 2.22167 -0.733487 -0.20892 -1.78269e-013 -1.81293e-013 -4.10391e-013 -93.4513 30.0419 7.22888 18.0937 -10.7877 -34.2307 6.83239 -57.0668 12.5309 -9.92234e-010 4.45428e-010 -4.37235e-009 -1.51367e-009 6.42189e-010 -7.57607e-009 -9.92236e-010 4.45431e-010 -4.37234e-009 -7.73091 5.47488 -0.417314 -9.92233e-010 4.4543e-010 -4.37234e-009 -2.90554 0.965183 -0.102902 -9.92247e-010 4.45429e-010 -4.37234e-009 -10.2786 0.731801 -0.0259123 -9.92234e-010 4.45426e-010 -4.37235e-009 -2.22167 -0.733487 0.20892 -2.03217e-016 0 -3.88251e-019 -8.33599 -13.3638 -17.6384 -2.20925 70.8881 2.60718 -0.374886 5.8729 4.14877 2.03217e-016 0 3.88251e-019 23.8706 -58.8178 36.4296 13.1633 85.347 -12.8998 4.26862 2.21701 28.8605 
-134.04 68.1772 29.1153 -3.44764 -23.7961 -155.598 -1.64688 34.8226 -2.64209 -1.00719 0.0357948 0.187367 -5.26606 14.0971 -1.68579 52.3641 -66.0066 39.0713 -0 0 0 -0 0 0 -5.32272e-014 -1.75057e-013 -4.339e-013 86.905 -2.9154 1.59844 -28.4012 -34.6577 74.8734 -3.7834 -47.1555 -8.69545 -2.33425e-009 -5.1352e-010 -3.47893e-009 -3.90722e-009 -8.99804e-010 -6.06986e-009 -2.33425e-009 -5.1352e-010 -3.47893e-009 7.73091 5.47488 0.417314 -2.33425e-009 -5.1352e-010 -3.47893e-009 2.90554 0.965183 0.102902 -2.33425e-009 -5.13519e-010 -3.47893e-009 10.2786 0.731801 0.0259123 -2.33426e-009 -5.13519e-010 -3.47892e-009 2.22167 -0.733487 -0.20892 -5.35306e-014 -1.75054e-013 -4.3415e-013 -91.4165 29.9379 3.31217 18.4397 -11.1493 -35.0704 8.13256 -59.9458 14.056 -1.42314e-009 1.07378e-009 -2.99685e-009 -2.31271e-009 1.80038e-009 -5.22329e-009 -1.42314e-009 1.07378e-009 -2.99684e-009 -7.73091 5.47488 -0.417314 -1.42314e-009 1.07378e-009 -2.99684e-009 -2.90554 0.965183 -0.102902 -1.42315e-009 1.07378e-009 -2.99685e-009 -10.2786 0.731801 -0.0259123 -1.42314e-009 1.07378e-009 -2.99686e-009 -2.22167 -0.733487 0.20892 -2.03217e-016 0 -3.88251e-019 -10.2523 -16.3355 -19.0122 -3.28713 75.649 3.62996 -0.3375 5.68923 3.21192 2.03217e-016 0 3.88251e-019 18.759 -57.1058 31.3663 10.4743 84.2679 -10.1818 4.12914 2.26167 28.4021 
-134.439 68.008 27.3147 -2.94169 -22.8794 -156.971 -2.0708 35.9174 -4.24357 -0.851785 -0.201673 -0.227598 -5.29489 14.6924 -1.53743 52.2018 -66.0534 39.0429 -0 0 0 -0 0 0 1.6439e-014 -6.93789e-014 -2.46959e-013 86.5329 -4.17326 1.16146 -28.4114 -34.9553 75.3563 -4.45174 -49.9627 -9.59553 -2.92744e-009 -4.1497e-010 -2.88929e-009 -4.93915e-009 -7.23577e-010 -5.08638e-009 -2.92744e-009 -4.14969e-010 -2.8893e-009 7.73091 5.47488 0.417314 -2.92744e-009 -4.14969e-010 -2.8893e-009 2.90554 0.965183 0.102902 -2.92743e-009 -4.14968e-010 -2.8893e-009 10.2786 0.731801 0.0259123 -2.92745e-009 -4.14967e-010 -2.88929e-009 2.22167 -0.733487 -0.20892 1.61565e-014 -6.93746e-014 -2.4721e-013 -89.2383 29.4904 -0.619456 18.7028 -11.4254 -35.7404 9.79969 -62.9008 15.9535 -1.0788e-009 9.03145e-010 -1.40367e-009 -1.79435e-009 1.58346e-009 -2.46848e-009 -1.0788e-009 9.03149e-010 -1.40366e-009 -7.73091 5.47488 -0.417314 -1.0788e-009 9.03146e-010 -1.40366e-009 -2.90554 0.965183 -0.102902 -1.07881e-009 9.03146e-010 -1.40367e-009 -10.2786 0.731801 -0.0259123 -1.0788e-009 9.03143e-010 -1.40368e-009 -2.22167 -0.733487 0.20892 -2.03217e-016 0 -3.88251e-019 -12.7295 -19.2251 -20.6906 -5.35294 80.2173 5.6392 -0.325599 5.53778 1.88623 2.03217e-016 0 3.88251e-019 13.7259 -54.8147 26.6282 8.24483 82.918 -7.94465 4.0772 2.10939 27.9884 
-133.042 68.6257 25.0693 -2.39041 -21.9728 -158.228 -2.35462 36.9069 -5.84 -0.688444 -0.47458 -0.630496 -5.39001 15.2158 -1.37136 51.5798 -65.8907 38.5251 -0 0 0 -0 0 0 6.20485e-014 7.17836e-014 5.47898e-015 85.9999 -5.43376 0.950035 -28.4246 -35.1582 75.6355 -5.23514 -52.6577 -10.5917 -3.3987e-009 -2.47693e-010 -1.9802e-009 -5.77235e-009 -4.24808e-010 -3.54754e-009 -3.3987e-009 -2.47691e-010 -1.98021e-009 7.73091 5.47488 0.417314 -3.3987e-009 -2.47692e-010 -1.9802e-009 2.90554 0.965183 0.102902 -3.39869e-009 -2.47691e-010 -1.9802e-009 10.2786 0.731801 0.0259123 -3.39871e-009 -2.47689e-010 -1.9802e-009 2.22167 -0.733487 -0.20892 6.17961e-014 7.17869e-014 5.22701e-015 -87.1771 29.0095 -4.33003 19.0399 -11.8155 -36.5171 12.0131 -65.9814 18.4053 -4.29397e-010 4.22246e-010 7.05017e-011 -7.49276e-010 8.18696e-010 9.31553e-011 -4.29401e-010 4.22249e-010 7.05112e-011 -7.73091 5.47488 -0.417314 -4.29399e-010 4.22246e-010 7.05042e-011 -2.90554 0.965183 -0.102902 -4.29412e-010 4.22246e-010 7.05049e-011 -10.2786 0.731801 -0.0259123 -4.29394e-010 4.22243e-010 7.04933e-011 -2.22167 -0.733487 0.20892 -2.03217e-016 0 -3.88251e-019 -15.3239 -22.2373 -22.3567 -10.2392 84.4062 10.477 -0.338986 5.35552 0.405127 2.03217e-016 0 3.88251e-019 9.51309 -52.1533 22.7805 6.55772 81.3749 -6.27372 4.05428 1.87757 27.6158 
